<svg width="25" height="28" viewBox="0 0 25 28" fill="none" xmlns="http://www.w3.org/2000/svg">
<path d="M0 7.98308H3.23307V0H10.1842V7.98308H14.4333V13.9052H10.1842V19.33C10.1842 20.1354 10.2996 20.7908 10.5306 21.2961C10.7615 21.7857 11.1849 22.0305 11.8007 22.0305C12.2164 22.0305 12.5705 21.9357 12.863 21.7462C13.1555 21.5567 13.3326 21.4303 13.3941 21.3672L15.7959 26.4839C15.6881 26.5787 15.3494 26.7524 14.7797 27.0051C14.2255 27.2578 13.5173 27.4867 12.6552 27.6921C11.793 27.8974 10.8308 28 9.76849 28C7.87483 28 6.31218 27.4552 5.08054 26.3655C3.84889 25.26 3.23307 23.5623 3.23307 21.2724V13.9052H0V7.98308Z" fill="white"/>
<path d="M20.797 28C19.6577 28 18.6724 27.5815 17.8411 26.7445C17.0251 25.8917 16.6171 24.881 16.6171 23.7124C16.6171 22.5121 17.0251 21.4935 17.8411 20.6565C18.6724 19.8037 19.6577 19.3773 20.797 19.3773C21.9671 19.3773 22.9601 19.8037 23.7761 20.6565C24.592 21.4935 25 22.5121 25 23.7124C25 24.881 24.592 25.8917 23.7761 26.7445C22.9601 27.5815 21.9671 28 20.797 28Z" fill="white"/>
</svg>
